<svg xmlns="http://www.w3.org/2000/svg" width="768" height="1152" viewBox="0 0 768 1152">
<defs>
<linearGradient id="sky" x1="0" y1="0" x2="0" y2="1">
<stop offset="0" stop-color="#3b82f6"/>
<stop offset=".45" stop-color="#8b5cf6"/>
<stop offset="1" stop-color="#f472b6"/>
</linearGradient>
<radialGradient id="sun" cx=".5" cy=".5" r=".5">
<stop offset="0" stop-color="#fff7d6" stop-opacity=".95"/>
<stop offset="1" stop-color="#fff7d6" stop-opacity="0"/>
</radialGradient>
<filter id="soft">
<feGaussianBlur stdDeviation="14"/>
</filter>
<filter id="soft2">
<feGaussianBlur stdDeviation="26"/>
</filter>
</defs>
<rect width="768" height="1152" fill="url(#sky)"/>
<circle cx="600" cy="180" r="240" fill="url(#sun)"/>
<ellipse cx="140" cy="260" rx="120" ry="34" fill="#fff" opacity="0.5" filter="url(#soft)"/>
<ellipse cx="330" cy="150" rx="90" ry="26" fill="#fff" opacity="0.4" filter="url(#soft)"/>
<ellipse cx="560" cy="330" rx="140" ry="38" fill="#fff" opacity="0.45" filter="url(#soft)"/>
<ellipse cx="220" cy="430" rx="80" ry="22" fill="#fff" opacity="0.35" filter="url(#soft)"/>
<ellipse cx="660" cy="520" rx="90" ry="26" fill="#fff" opacity="0.3" filter="url(#soft)"/>
<circle cx="249" cy="75" r="1.8" fill="#fff" opacity="0.39"/>
<circle cx="412" cy="183" r="0.9" fill="#fff" opacity="0.65"/>
<circle cx="29" cy="217" r="0.9" fill="#fff" opacity="0.40"/>
<circle cx="326" cy="413" r="1.0" fill="#fff" opacity="0.48"/>
<circle cx="482" cy="474" r="1.7" fill="#fff" opacity="0.59"/>
<circle cx="750" cy="23" r="2.2" fill="#fff" opacity="0.52"/>
<circle cx="111" cy="59" r="1.3" fill="#fff" opacity="0.84"/>
<circle cx="139" cy="291" r="1.8" fill="#fff" opacity="0.57"/>
<circle cx="421" cy="31" r="0.9" fill="#fff" opacity="0.47"/>
<circle cx="523" cy="214" r="1.3" fill="#fff" opacity="0.70"/>
<circle cx="348" cy="150" r="2.1" fill="#fff" opacity="0.77"/>
<circle cx="187" cy="287" r="1.6" fill="#fff" opacity="0.88"/>
<circle cx="560" cy="144" r="2.4" fill="#fff" opacity="0.42"/>
<circle cx="321" cy="379" r="1.0" fill="#fff" opacity="0.64"/>
<circle cx="30" cy="334" r="2.0" fill="#fff" opacity="0.69"/>
<circle cx="672" cy="157" r="1.9" fill="#fff" opacity="0.71"/>
<circle cx="445" cy="228" r="2.1" fill="#fff" opacity="0.92"/>
<circle cx="364" cy="332" r="0.9" fill="#fff" opacity="0.77"/>
<circle cx="497" cy="497" r="2.1" fill="#fff" opacity="0.52"/>
<circle cx="296" cy="334" r="0.8" fill="#fff" opacity="0.63"/>
<circle cx="129" cy="59" r="0.9" fill="#fff" opacity="0.81"/>
<circle cx="99" cy="124" r="1.4" fill="#fff" opacity="0.87"/>
<circle cx="62" cy="225" r="1.7" fill="#fff" opacity="0.88"/>
<circle cx="629" cy="432" r="1.2" fill="#fff" opacity="0.60"/>
<circle cx="276" cy="442" r="2.3" fill="#fff" opacity="0.44"/>
<circle cx="135" cy="116" r="1.2" fill="#fff" opacity="0.64"/>
<circle cx="452" cy="131" r="0.8" fill="#fff" opacity="0.60"/>
<circle cx="284" cy="283" r="2.3" fill="#fff" opacity="0.76"/>
<circle cx="396" cy="309" r="1.9" fill="#fff" opacity="0.38"/>
<circle cx="691" cy="390" r="2.2" fill="#fff" opacity="0.83"/>
<circle cx="301" cy="199" r="1.0" fill="#fff" opacity="0.73"/>
<circle cx="48" cy="34" r="1.1" fill="#fff" opacity="0.45"/>
<circle cx="261" cy="26" r="0.8" fill="#fff" opacity="0.44"/>
<circle cx="78" cy="182" r="0.8" fill="#fff" opacity="0.87"/>
<circle cx="472" cy="74" r="1.2" fill="#fff" opacity="0.56"/>
<circle cx="280" cy="61" r="2.2" fill="#fff" opacity="0.95"/>
<circle cx="358" cy="242" r="0.9" fill="#fff" opacity="0.41"/>
<circle cx="263" cy="132" r="2.1" fill="#fff" opacity="0.45"/>
<circle cx="18" cy="475" r="1.6" fill="#fff" opacity="0.44"/>
<circle cx="417" cy="14" r="1.6" fill="#fff" opacity="0.94"/>
<circle cx="663" cy="348" r="1.2" fill="#fff" opacity="0.57"/>
<circle cx="128" cy="386" r="1.7" fill="#fff" opacity="0.82"/>
<circle cx="253" cy="112" r="2.1" fill="#fff" opacity="0.94"/>
<circle cx="655" cy="403" r="2.1" fill="#fff" opacity="0.79"/>
<circle cx="174" cy="259" r="1.4" fill="#fff" opacity="0.37"/>
<circle cx="21" cy="140" r="1.2" fill="#fff" opacity="0.77"/>
<circle cx="735" cy="224" r="2.3" fill="#fff" opacity="0.94"/>
<circle cx="733" cy="182" r="1.2" fill="#fff" opacity="0.49"/>
<circle cx="151" cy="102" r="1.8" fill="#fff" opacity="0.89"/>
<circle cx="645" cy="240" r="1.8" fill="#fff" opacity="0.83"/>
<circle cx="65" cy="330" r="2.3" fill="#fff" opacity="0.82"/>
<circle cx="576" cy="239" r="1.1" fill="#fff" opacity="0.82"/>
<circle cx="255" cy="400" r="2.4" fill="#fff" opacity="0.59"/>
<circle cx="308" cy="473" r="2.0" fill="#fff" opacity="0.45"/>
<circle cx="98" cy="76" r="2.2" fill="#fff" opacity="0.83"/>
<circle cx="112" cy="413" r="2.4" fill="#fff" opacity="0.74"/>
<circle cx="269" cy="274" r="1.0" fill="#fff" opacity="0.36"/>
<circle cx="746" cy="325" r="1.6" fill="#fff" opacity="0.91"/>
<circle cx="333" cy="436" r="2.1" fill="#fff" opacity="0.48"/>
<circle cx="193" cy="146" r="1.2" fill="#fff" opacity="0.70"/>
<rect x="0" y="590" width="92" height="230" fill="#6d28d9" opacity=".45"/>
<rect x="116" y="599" width="93" height="221" fill="#6d28d9" opacity=".45"/>
<rect x="227" y="598" width="73" height="222" fill="#6d28d9" opacity=".45"/>
<rect x="320" y="665" width="116" height="155" fill="#6d28d9" opacity=".45"/>
<rect x="449" y="550" width="66" height="270" fill="#6d28d9" opacity=".45"/>
<rect x="536" y="523" width="63" height="297" fill="#6d28d9" opacity=".45"/>
<rect x="624" y="582" width="106" height="238" fill="#6d28d9" opacity=".45"/>
<rect x="740" y="595" width="61" height="225" fill="#6d28d9" opacity=".45"/>
<rect x="-20" y="742" width="164" height="410" fill="#3b1d78" opacity=".85"/>
<rect x="28" y="768" width="12" height="16" rx="2" fill="#bae6fd" opacity=".9"/>
<rect x="62" y="768" width="12" height="16" rx="2" fill="#fecdd3" opacity=".9"/>
<rect x="-6" y="814" width="12" height="16" rx="2" fill="#fde68a" opacity=".9"/>
<rect x="28" y="814" width="12" height="16" rx="2" fill="#fde68a" opacity=".9"/>
<rect x="62" y="814" width="12" height="16" rx="2" fill="#fecdd3" opacity=".9"/>
<rect x="-6" y="860" width="12" height="16" rx="2" fill="#bae6fd" opacity=".9"/>
<rect x="28" y="860" width="12" height="16" rx="2" fill="#fde68a" opacity=".9"/>
<rect x="-6" y="906" width="12" height="16" rx="2" fill="#fde68a" opacity=".9"/>
<rect x="28" y="906" width="12" height="16" rx="2" fill="#fde68a" opacity=".9"/>
<rect x="62" y="952" width="12" height="16" rx="2" fill="#fecdd3" opacity=".9"/>
<rect x="-6" y="998" width="12" height="16" rx="2" fill="#fecdd3" opacity=".9"/>
<rect x="96" y="998" width="12" height="16" rx="2" fill="#fecdd3" opacity=".9"/>
<rect x="28" y="1044" width="12" height="16" rx="2" fill="#bae6fd" opacity=".9"/>
<rect x="62" y="1044" width="12" height="16" rx="2" fill="#fde68a" opacity=".9"/>
<rect x="96" y="1090" width="12" height="16" rx="2" fill="#fecdd3" opacity=".9"/>
<rect x="-6" y="1136" width="12" height="16" rx="2" fill="#fecdd3" opacity=".9"/>
<rect x="62" y="1136" width="12" height="16" rx="2" fill="#bae6fd" opacity=".9"/>
<rect x="96" y="1136" width="12" height="16" rx="2" fill="#fecdd3" opacity=".9"/>
<rect x="181" y="753" width="133" height="399" fill="#3b1d78" opacity=".85"/>
<rect x="195" y="779" width="12" height="16" rx="2" fill="#fde68a" opacity=".9"/>
<rect x="229" y="779" width="12" height="16" rx="2" fill="#fde68a" opacity=".9"/>
<rect x="297" y="779" width="12" height="16" rx="2" fill="#fecdd3" opacity=".9"/>
<rect x="195" y="825" width="12" height="16" rx="2" fill="#bae6fd" opacity=".9"/>
<rect x="229" y="825" width="12" height="16" rx="2" fill="#bae6fd" opacity=".9"/>
<rect x="195" y="871" width="12" height="16" rx="2" fill="#fde68a" opacity=".9"/>
<rect x="229" y="871" width="12" height="16" rx="2" fill="#fecdd3" opacity=".9"/>
<rect x="263" y="871" width="12" height="16" rx="2" fill="#fde68a" opacity=".9"/>
<rect x="297" y="963" width="12" height="16" rx="2" fill="#fecdd3" opacity=".9"/>
<rect x="195" y="1009" width="12" height="16" rx="2" fill="#fde68a" opacity=".9"/>
<rect x="229" y="1009" width="12" height="16" rx="2" fill="#fecdd3" opacity=".9"/>
<rect x="195" y="1055" width="12" height="16" rx="2" fill="#fecdd3" opacity=".9"/>
<rect x="229" y="1055" width="12" height="16" rx="2" fill="#fecdd3" opacity=".9"/>
<rect x="263" y="1101" width="12" height="16" rx="2" fill="#fde68a" opacity=".9"/>
<rect x="297" y="1101" width="12" height="16" rx="2" fill="#fde68a" opacity=".9"/>
<rect x="340" y="754" width="117" height="398" fill="#3b1d78" opacity=".85"/>
<rect x="354" y="825" width="12" height="16" rx="2" fill="#bae6fd" opacity=".9"/>
<rect x="422" y="871" width="12" height="16" rx="2" fill="#fecdd3" opacity=".9"/>
<rect x="388" y="963" width="12" height="16" rx="2" fill="#bae6fd" opacity=".9"/>
<rect x="422" y="963" width="12" height="16" rx="2" fill="#bae6fd" opacity=".9"/>
<rect x="388" y="1009" width="12" height="16" rx="2" fill="#fde68a" opacity=".9"/>
<rect x="354" y="1055" width="12" height="16" rx="2" fill="#bae6fd" opacity=".9"/>
<rect x="422" y="1055" width="12" height="16" rx="2" fill="#bae6fd" opacity=".9"/>
<rect x="479" y="927" width="117" height="225" fill="#3b1d78" opacity=".85"/>
<rect x="560" y="953" width="12" height="16" rx="2" fill="#bae6fd" opacity=".9"/>
<rect x="492" y="999" width="12" height="16" rx="2" fill="#bae6fd" opacity=".9"/>
<rect x="526" y="999" width="12" height="16" rx="2" fill="#fecdd3" opacity=".9"/>
<rect x="492" y="1045" width="12" height="16" rx="2" fill="#fecdd3" opacity=".9"/>
<rect x="526" y="1045" width="12" height="16" rx="2" fill="#bae6fd" opacity=".9"/>
<rect x="526" y="1091" width="12" height="16" rx="2" fill="#bae6fd" opacity=".9"/>
<rect x="560" y="1091" width="12" height="16" rx="2" fill="#fde68a" opacity=".9"/>
<rect x="492" y="1137" width="12" height="16" rx="2" fill="#fde68a" opacity=".9"/>
<rect x="560" y="1137" width="12" height="16" rx="2" fill="#fde68a" opacity=".9"/>
<rect x="627" y="874" width="138" height="278" fill="#3b1d78" opacity=".85"/>
<rect x="641" y="899" width="12" height="16" rx="2" fill="#fecdd3" opacity=".9"/>
<rect x="709" y="899" width="12" height="16" rx="2" fill="#fecdd3" opacity=".9"/>
<rect x="743" y="899" width="12" height="16" rx="2" fill="#fde68a" opacity=".9"/>
<rect x="641" y="945" width="12" height="16" rx="2" fill="#bae6fd" opacity=".9"/>
<rect x="675" y="945" width="12" height="16" rx="2" fill="#bae6fd" opacity=".9"/>
<rect x="675" y="991" width="12" height="16" rx="2" fill="#fecdd3" opacity=".9"/>
<rect x="743" y="991" width="12" height="16" rx="2" fill="#fecdd3" opacity=".9"/>
<rect x="641" y="1037" width="12" height="16" rx="2" fill="#fecdd3" opacity=".9"/>
<rect x="709" y="1037" width="12" height="16" rx="2" fill="#fecdd3" opacity=".9"/>
<rect x="743" y="1037" width="12" height="16" rx="2" fill="#fde68a" opacity=".9"/>
<rect x="641" y="1083" width="12" height="16" rx="2" fill="#fde68a" opacity=".9"/>
<rect x="675" y="1083" width="12" height="16" rx="2" fill="#bae6fd" opacity=".9"/>
<rect x="743" y="1083" width="12" height="16" rx="2" fill="#fde68a" opacity=".9"/>
<rect x="641" y="1129" width="12" height="16" rx="2" fill="#fecdd3" opacity=".9"/>
<rect x="784" y="810" width="131" height="342" fill="#3b1d78" opacity=".85"/>
<rect x="798" y="835" width="12" height="16" rx="2" fill="#fde68a" opacity=".9"/>
<rect x="798" y="881" width="12" height="16" rx="2" fill="#fde68a" opacity=".9"/>
<rect x="866" y="881" width="12" height="16" rx="2" fill="#fde68a" opacity=".9"/>
<rect x="900" y="881" width="12" height="16" rx="2" fill="#bae6fd" opacity=".9"/>
<rect x="798" y="927" width="12" height="16" rx="2" fill="#bae6fd" opacity=".9"/>
<rect x="832" y="927" width="12" height="16" rx="2" fill="#bae6fd" opacity=".9"/>
<rect x="866" y="927" width="12" height="16" rx="2" fill="#fde68a" opacity=".9"/>
<rect x="866" y="973" width="12" height="16" rx="2" fill="#fde68a" opacity=".9"/>
<rect x="900" y="973" width="12" height="16" rx="2" fill="#fde68a" opacity=".9"/>
<rect x="832" y="1019" width="12" height="16" rx="2" fill="#fecdd3" opacity=".9"/>
<rect x="798" y="1065" width="12" height="16" rx="2" fill="#bae6fd" opacity=".9"/>
<rect x="866" y="1065" width="12" height="16" rx="2" fill="#fecdd3" opacity=".9"/>
<rect x="798" y="1111" width="12" height="16" rx="2" fill="#bae6fd" opacity=".9"/>
<rect x="866" y="1111" width="12" height="16" rx="2" fill="#bae6fd" opacity=".9"/>
</svg>
