<svg xmlns="http://www.w3.org/2000/svg" width="768" height="1152" viewBox="0 0 768 1152">
<defs>
<pattern id="dots" width="22" height="22" patternUnits="userSpaceOnUse">
<circle cx="6" cy="6" r="4" fill="#f43f5e"/>
</pattern>
<pattern id="dots2" width="26" height="26" patternUnits="userSpaceOnUse" patternTransform="rotate(15)">
<circle cx="7" cy="7" r="4.5" fill="#0d9488"/>
</pattern>
</defs>
<rect width="768" height="1152" fill="#fff7e6"/>
<circle cx="60" cy="120" r="150" fill="url(#dots)"/>
<circle cx="720" cy="240" r="120" fill="#a78bfa" opacity=".9"/>
<circle cx="720" cy="240" r="120" fill="none" stroke="#5b21b6" stroke-width="10"/>
<path d="M-40,700 L180,700 L70,940 Z" fill="#facc15"/>
<path d="M768,620 a170,170 0 0 1 0,340 z" fill="url(#dots2)"/>
<circle cx="100" cy="1080" r="90" fill="#38bdf8"/>
<rect x="560" y="980" width="190" height="190" rx="24" fill="#fb7185" transform="rotate(12 655 1075)"/>
<path d="M60,520 L120,470 L180,520 L240,470 L300,520" stroke="#1d1d1f" stroke-width="14" fill="none" stroke-linecap="round"/>
<path d="M480,80 L530,130 L580,80 L630,130 L680,80" stroke="#f43f5e" stroke-width="12" fill="none" stroke-linecap="round"/>
<path d="M80,350 q30,-40 60,0 t60,0 t60,0" stroke="#0d9488" stroke-width="12" fill="none" stroke-linecap="round"/>
<g transform="translate(660,440) scale(1.2)">
<rect x="-8" y="-30" width="16" height="60" rx="8" fill="#1d1d1f"/>
<rect x="-30" y="-8" width="60" height="16" rx="8" fill="#1d1d1f"/>
</g>
<g transform="translate(120,620) scale(1)">
<rect x="-8" y="-30" width="16" height="60" rx="8" fill="#f43f5e"/>
<rect x="-30" y="-8" width="60" height="16" rx="8" fill="#f43f5e"/>
</g>
<g transform="translate(360,1100) scale(1.1)">
<rect x="-8" y="-30" width="16" height="60" rx="8" fill="#5b21b6"/>
<rect x="-30" y="-8" width="60" height="16" rx="8" fill="#5b21b6"/>
</g>
<g transform="translate(420,60) scale(0.9)">
<rect x="-8" y="-30" width="16" height="60" rx="8" fill="#0d9488"/>
<rect x="-30" y="-8" width="60" height="16" rx="8" fill="#0d9488"/>
</g>
<rect x="188" y="614" width="26" height="12" rx="6" fill="#38bdf8" transform="rotate(67 188 614)" opacity=".85"/>
<rect x="449" y="1012" width="26" height="12" rx="6" fill="#38bdf8" transform="rotate(84 449 1012)" opacity=".85"/>
<rect x="186" y="1107" width="26" height="12" rx="6" fill="#38bdf8" transform="rotate(85 186 1107)" opacity=".85"/>
<rect x="127" y="713" width="26" height="12" rx="6" fill="#38bdf8" transform="rotate(156 127 713)" opacity=".85"/>
<rect x="296" y="37" width="26" height="12" rx="6" fill="#facc15" transform="rotate(140 296 37)" opacity=".85"/>
<rect x="233" y="54" width="26" height="12" rx="6" fill="#5b21b6" transform="rotate(156 233 54)" opacity=".85"/>
<rect x="441" y="1025" width="26" height="12" rx="6" fill="#5b21b6" transform="rotate(70 441 1025)" opacity=".85"/>
<rect x="300" y="895" width="26" height="12" rx="6" fill="#facc15" transform="rotate(80 300 895)" opacity=".85"/>
<rect x="642" y="126" width="26" height="12" rx="6" fill="#facc15" transform="rotate(24 642 126)" opacity=".85"/>
<rect x="203" y="754" width="26" height="12" rx="6" fill="#0d9488" transform="rotate(140 203 754)" opacity=".85"/>
<rect x="318" y="930" width="26" height="12" rx="6" fill="#38bdf8" transform="rotate(103 318 930)" opacity=".85"/>
<rect x="660" y="765" width="26" height="12" rx="6" fill="#0d9488" transform="rotate(167 660 765)" opacity=".85"/>
<rect x="722" y="753" width="26" height="12" rx="6" fill="#0d9488" transform="rotate(29 722 753)" opacity=".85"/>
<rect x="703" y="1008" width="26" height="12" rx="6" fill="#1d1d1f" transform="rotate(102 703 1008)" opacity=".85"/>
<rect x="720" y="312" width="26" height="12" rx="6" fill="#5b21b6" transform="rotate(22 720 312)" opacity=".85"/>
<rect x="625" y="1101" width="26" height="12" rx="6" fill="#f43f5e" transform="rotate(16 625 1101)" opacity=".85"/>
<rect x="311" y="185" width="26" height="12" rx="6" fill="#5b21b6" transform="rotate(53 311 185)" opacity=".85"/>
<rect x="638" y="68" width="26" height="12" rx="6" fill="#f43f5e" transform="rotate(111 638 68)" opacity=".85"/>
<rect x="410" y="1027" width="26" height="12" rx="6" fill="#facc15" transform="rotate(50 410 1027)" opacity=".85"/>
<rect x="727" y="358" width="26" height="12" rx="6" fill="#38bdf8" transform="rotate(14 727 358)" opacity=".85"/>
</svg>
