<svg xmlns="http://www.w3.org/2000/svg" width="768" height="1152" viewBox="0 0 768 1152">
<rect x="0" y="0" width="768" height="144" fill="#0284c7"/>
<rect x="0" y="143" width="768" height="144" fill="#0ea5e9"/>
<rect x="0" y="286" width="768" height="144" fill="#38bdf8"/>
<rect x="0" y="429" width="768" height="144" fill="#7dd3fc"/>
<rect x="0" y="572" width="768" height="144" fill="#bae6fd"/>
<rect x="0" y="715" width="768" height="144" fill="#e0f2fe"/>
<rect x="608" y="64" width="96" height="96" fill="#fef08a" opacity="1"/>
<rect x="624" y="48" width="64" height="128" fill="#fde047" opacity="1"/>
<rect x="592" y="80" width="128" height="64" fill="#fde047" opacity="1"/>
<rect x="96" y="128" width="96" height="32" fill="#fff" opacity="1"/>
<rect x="64" y="160" width="192" height="32" fill="#fff" opacity="1"/>
<rect x="96" y="160" width="192" height="32" fill="#fff" opacity="1"/>
<rect x="96" y="192" width="128" height="16" fill="#e0f2fe" opacity="1"/>
<rect x="448" y="256" width="96" height="32" fill="#fff" opacity="1"/>
<rect x="416" y="288" width="192" height="32" fill="#fff" opacity="1"/>
<rect x="448" y="288" width="192" height="32" fill="#fff" opacity="1"/>
<rect x="448" y="320" width="128" height="16" fill="#e0f2fe" opacity="1"/>
<rect x="224" y="416" width="96" height="32" fill="#fff" opacity="1"/>
<rect x="192" y="448" width="192" height="32" fill="#fff" opacity="1"/>
<rect x="224" y="448" width="192" height="32" fill="#fff" opacity="1"/>
<rect x="224" y="480" width="128" height="16" fill="#e0f2fe" opacity="1"/>
<rect x="0" y="704" width="224" height="16" fill="#4ade80" opacity="1"/>
<rect x="16" y="688" width="192" height="16" fill="#4ade80" opacity="1"/>
<rect x="32" y="672" width="160" height="16" fill="#4ade80" opacity="1"/>
<rect x="48" y="656" width="128" height="16" fill="#4ade80" opacity="1"/>
<rect x="64" y="640" width="96" height="16" fill="#4ade80" opacity="1"/>
<rect x="80" y="624" width="64" height="16" fill="#4ade80" opacity="1"/>
<rect x="96" y="608" width="32" height="16" fill="#4ade80" opacity="1"/>
<rect x="112" y="592" width="32" height="16" fill="#4ade80" opacity="1"/>
<rect x="128" y="576" width="32" height="16" fill="#4ade80" opacity="1"/>
<rect x="144" y="560" width="32" height="16" fill="#4ade80" opacity="1"/>
<rect x="160" y="544" width="32" height="16" fill="#4ade80" opacity="1"/>
<rect x="176" y="528" width="32" height="16" fill="#4ade80" opacity="1"/>
<rect x="192" y="512" width="32" height="16" fill="#4ade80" opacity="1"/>
<rect x="208" y="496" width="32" height="16" fill="#4ade80" opacity="1"/>
<rect x="448" y="768" width="288" height="16" fill="#22c55e" opacity="1"/>
<rect x="464" y="752" width="256" height="16" fill="#22c55e" opacity="1"/>
<rect x="480" y="736" width="224" height="16" fill="#22c55e" opacity="1"/>
<rect x="496" y="720" width="192" height="16" fill="#22c55e" opacity="1"/>
<rect x="512" y="704" width="160" height="16" fill="#22c55e" opacity="1"/>
<rect x="528" y="688" width="128" height="16" fill="#22c55e" opacity="1"/>
<rect x="544" y="672" width="96" height="16" fill="#22c55e" opacity="1"/>
<rect x="560" y="656" width="64" height="16" fill="#22c55e" opacity="1"/>
<rect x="576" y="640" width="32" height="16" fill="#22c55e" opacity="1"/>
<rect x="592" y="624" width="32" height="16" fill="#22c55e" opacity="1"/>
<rect x="608" y="608" width="32" height="16" fill="#22c55e" opacity="1"/>
<rect x="624" y="592" width="32" height="16" fill="#22c55e" opacity="1"/>
<rect x="640" y="576" width="32" height="16" fill="#22c55e" opacity="1"/>
<rect x="656" y="560" width="32" height="16" fill="#22c55e" opacity="1"/>
<rect x="672" y="544" width="32" height="16" fill="#22c55e" opacity="1"/>
<rect x="688" y="528" width="32" height="16" fill="#22c55e" opacity="1"/>
<rect x="704" y="512" width="32" height="16" fill="#22c55e" opacity="1"/>
<rect x="720" y="496" width="32" height="16" fill="#22c55e" opacity="1"/>
<rect x="0" y="860" width="768" height="292" fill="#16a34a"/>
<rect x="0" y="860" width="768" height="16" fill="#4ade80"/>
<rect x="340" y="880" width="90" height="18" fill="#fde68a" opacity=".8"/>
<rect x="330" y="910" width="110" height="18" fill="#fde68a" opacity=".8"/>
<rect x="320" y="940" width="130" height="18" fill="#fde68a" opacity=".8"/>
<rect x="310" y="970" width="150" height="18" fill="#fde68a" opacity=".8"/>
<rect x="300" y="1000" width="170" height="18" fill="#fde68a" opacity=".8"/>
<rect x="290" y="1030" width="190" height="18" fill="#fde68a" opacity=".8"/>
<rect x="280" y="1060" width="210" height="18" fill="#fde68a" opacity=".8"/>
<rect x="270" y="1090" width="230" height="18" fill="#fde68a" opacity=".8"/>
<rect x="260" y="1120" width="250" height="18" fill="#fde68a" opacity=".8"/>
<rect x="160" y="1024" width="64" height="16" fill="#1f2937" opacity="1"/>
<rect x="144" y="1040" width="96" height="16" fill="#1f2937" opacity="1"/>
<rect x="128" y="1056" width="128" height="16" fill="#1f2937" opacity="1"/>
<rect x="128" y="1072" width="128" height="16" fill="#1f2937" opacity="1"/>
<rect x="128" y="1088" width="128" height="16" fill="#1f2937" opacity="1"/>
<rect x="144" y="1104" width="96" height="16" fill="#1f2937" opacity="1"/>
<rect x="144" y="1120" width="96" height="16" fill="#1f2937" opacity="1"/>
<rect x="160" y="1056" width="64" height="16" fill="#fff" opacity="1"/>
<rect x="144" y="1072" width="96" height="16" fill="#fff" opacity="1"/>
<rect x="144" y="1088" width="96" height="16" fill="#fff" opacity="1"/>
<rect x="160" y="1104" width="64" height="16" fill="#fff" opacity="1"/>
<rect x="160" y="1040" width="16" height="16" fill="#fff" opacity="1"/>
<rect x="208" y="1040" width="16" height="16" fill="#fff" opacity="1"/>
<rect x="176" y="1056" width="32" height="16" fill="#f59e0b" opacity="1"/>
<rect x="144" y="1136" width="32" height="16" fill="#f59e0b" opacity="1"/>
<rect x="208" y="1136" width="32" height="16" fill="#f59e0b" opacity="1"/>
<path d="M30,690 Q384.0,800 738,690" stroke="#334155" stroke-width="5" fill="none"/>
<path d="M40,700 l20,0 l-10,26 z" fill="#f43f5e"/>
<path d="M100,711 l20,0 l-10,26 z" fill="#f59e0b"/>
<path d="M160,721 l20,0 l-10,26 z" fill="#a3e635"/>
<path d="M220,730 l20,0 l-10,26 z" fill="#38bdf8"/>
<path d="M280,736 l20,0 l-10,26 z" fill="#a78bfa"/>
<path d="M340,739 l20,0 l-10,26 z" fill="#f43f5e"/>
<path d="M400,739 l20,0 l-10,26 z" fill="#f59e0b"/>
<path d="M460,736 l20,0 l-10,26 z" fill="#a3e635"/>
<path d="M520,730 l20,0 l-10,26 z" fill="#38bdf8"/>
<path d="M580,721 l20,0 l-10,26 z" fill="#a78bfa"/>
<path d="M640,711 l20,0 l-10,26 z" fill="#f43f5e"/>
<path d="M700,700 l20,0 l-10,26 z" fill="#f59e0b"/>
</svg>
