<svg xmlns="http://www.w3.org/2000/svg" width="768" height="1152" viewBox="0 0 768 1152">
<defs>
<filter id="wc" x="-40%" y="-40%" width="180%" height="180%">
<feTurbulence type="fractalNoise" baseFrequency="0.012 0.016" numOctaves="3" seed="8" result="n"/>
<feDisplacementMap in="SourceGraphic" in2="n" scale="90"/>
<feGaussianBlur stdDeviation="10"/>
</filter>
<filter id="grain">
<feTurbulence type="fractalNoise" baseFrequency="0.8" numOctaves="2" seed="3" result="n"/>
<feColorMatrix in="n" type="matrix" values="0 0 0 0 0.5 0 0 0 0 0.45 0 0 0 0 0.4 0 0 0 0.05 0"/>
</filter>
</defs>
<rect width="768" height="1152" fill="#fdfaf2"/>
<ellipse cx="180" cy="220" rx="300" ry="200" fill="#99f6e4" opacity="0.55" filter="url(#wc)"/>
<ellipse cx="560" cy="300" rx="260" ry="220" fill="#bae6fd" opacity="0.5" filter="url(#wc)"/>
<ellipse cx="300" cy="560" rx="340" ry="240" fill="#a7f3d0" opacity="0.45" filter="url(#wc)"/>
<ellipse cx="620" cy="760" rx="220" ry="260" fill="#99f6e4" opacity="0.4" filter="url(#wc)"/>
<ellipse cx="160" cy="900" rx="300" ry="220" fill="#bae6fd" opacity="0.5" filter="url(#wc)"/>
<ellipse cx="520" cy="1020" rx="320" ry="180" fill="#a7f3d0" opacity="0.45" filter="url(#wc)"/>
<ellipse cx="380" cy="820" rx="200" ry="140" fill="#d9f99d" opacity="0.3" filter="url(#wc)"/>
<ellipse cx="660" cy="140" rx="180" ry="140" fill="#fbcfe8" opacity="0.3" filter="url(#wc)"/>
<path d="M0,0 Q14,-26 0,-52 Q-14,-26 0,0" transform="translate(469,1012) rotate(286) scale(1.26)" fill="#65a30d" opacity=".35"/>
<path d="M0,0 Q14,-26 0,-52 Q-14,-26 0,0" transform="translate(549,1087) rotate(10) scale(0.93)" fill="#65a30d" opacity=".35"/>
<path d="M0,0 Q14,-26 0,-52 Q-14,-26 0,0" transform="translate(689,973) rotate(324) scale(0.68)" fill="#65a30d" opacity=".35"/>
<path d="M0,0 Q14,-26 0,-52 Q-14,-26 0,0" transform="translate(363,804) rotate(196) scale(1.00)" fill="#65a30d" opacity=".35"/>
<path d="M0,0 Q14,-26 0,-52 Q-14,-26 0,0" transform="translate(49,791) rotate(101) scale(1.24)" fill="#65a30d" opacity=".35"/>
<path d="M0,0 Q14,-26 0,-52 Q-14,-26 0,0" transform="translate(567,767) rotate(287) scale(0.70)" fill="#65a30d" opacity=".35"/>
<path d="M0,0 Q14,-26 0,-52 Q-14,-26 0,0" transform="translate(465,753) rotate(1) scale(1.21)" fill="#65a30d" opacity=".35"/>
<path d="M0,0 Q14,-26 0,-52 Q-14,-26 0,0" transform="translate(184,791) rotate(354) scale(1.21)" fill="#65a30d" opacity=".35"/>
<path d="M0,0 Q14,-26 0,-52 Q-14,-26 0,0" transform="translate(239,1104) rotate(194) scale(1.07)" fill="#65a30d" opacity=".35"/>
<path d="M0,0 Q14,-26 0,-52 Q-14,-26 0,0" transform="translate(181,1095) rotate(249) scale(1.28)" fill="#65a30d" opacity=".35"/>
<path d="M0,0 Q14,-26 0,-52 Q-14,-26 0,0" transform="translate(655,825) rotate(130) scale(0.72)" fill="#65a30d" opacity=".35"/>
<path d="M0,0 Q14,-26 0,-52 Q-14,-26 0,0" transform="translate(140,727) rotate(108) scale(1.02)" fill="#65a30d" opacity=".35"/>
<path d="M0,0 Q14,-26 0,-52 Q-14,-26 0,0" transform="translate(42,985) rotate(122) scale(0.82)" fill="#65a30d" opacity=".35"/>
<path d="M0,0 Q14,-26 0,-52 Q-14,-26 0,0" transform="translate(603,902) rotate(114) scale(0.94)" fill="#65a30d" opacity=".35"/>
<rect x="90" y="1050" width="150" height="26" rx="6" fill="#0d9488" opacity=".55" filter="url(#wc)"/>
<rect x="96" y="1022" width="138" height="26" rx="6" fill="#0284c7" opacity=".55" filter="url(#wc)"/>
<rect x="86" y="994" width="158" height="26" rx="6" fill="#be185d" opacity=".55" filter="url(#wc)"/>
<circle cx="640" cy="1030" r="42" fill="#b45309" opacity=".4" filter="url(#wc)"/>
<circle cx="640" cy="1030" r="30" fill="#78350f" opacity=".5" filter="url(#wc)"/>
<rect width="768" height="1152" filter="url(#grain)"/>
</svg>
